<svg width="27" height="27" viewBox="0 0 27 27" fill="none" xmlns="http://www.w3.org/2000/svg">
<path d="M19.0069 2.23608H7.82639C4.73897 2.23608 2.23611 4.73894 2.23611 7.82636V19.0069C2.23611 22.0943 4.73897 24.5972 7.82639 24.5972H19.0069C22.0944 24.5972 24.5972 22.0943 24.5972 19.0069V7.82636C24.5972 4.73894 22.0944 2.23608 19.0069 2.23608Z" stroke="#373737" stroke-width="2" stroke-linecap="round" stroke-linejoin="round"/>
<path d="M17.8889 12.7123C18.0269 13.6428 17.8679 14.5932 17.4347 15.4281C17.0014 16.2631 16.3159 16.9402 15.4757 17.3631C14.6355 17.786 13.6832 17.9332 12.7545 17.7838C11.8258 17.6343 10.9678 17.1958 10.3027 16.5307C9.63753 15.8655 9.19905 15.0076 9.0496 14.0788C8.90016 13.1501 9.04736 12.1979 9.47028 11.3577C9.8932 10.5174 10.5703 9.83194 11.4053 9.3987C12.2402 8.96545 13.1905 8.80652 14.121 8.9445C15.0702 9.08524 15.9489 9.52752 16.6274 10.206C17.3058 10.8845 17.7481 11.7632 17.8889 12.7123Z" stroke="#373737" stroke-width="2" stroke-linecap="round" stroke-linejoin="round"/>
<path d="M19.566 7.26733H19.578" stroke="#373737" stroke-width="2" stroke-linecap="round" stroke-linejoin="round"/>
</svg>
